{
    "asset" : {
        "generator" : "Khronos glTF Blender I/O v1.1.46",
        "version" : "2.0"
    },
    "scene" : 0,
    "scenes" : [
        {
            "name" : "Scene",
            "nodes" : [
                0
            ]
        }
    ],
    "nodes" : [
        {
            "mesh" : 0,
            "name" : "badbarrel"
        }
    ],
    "materials" : [
        {
            "doubleSided" : true,
            "emissiveFactor" : [
                0,
                0,
                0
            ],
            "name" : "Mat_barr",
            "pbrMetallicRoughness" : {
                "baseColorFactor" : [
                    0.02239840477705002,
                    0.07676824182271957,
                    0.8000000715255737,
                    1
                ],
                "metallicFactor" : 0.8999999761581421,
                "roughnessFactor" : 0.3333333134651184
            }
        }
    ],
    "meshes" : [
        {
            "name" : "Cylinder",
            "primitives" : [
                {
                    "attributes" : {
                        "POSITION" : 0,
                        "NORMAL" : 1,
                        "TEXCOORD_0" : 2
                    },
                    "indices" : 3,
                    "material" : 0
                }
            ]
        }
    ],
    "accessors" : [
        {
            "bufferView" : 0,
            "componentType" : 5126,
            "count" : 348,
            "max" : [
                0.5008847117424011,
                0.7678455114364624,
                0.5008847117424011
            ],
            "min" : [
                -0.5008847117424011,
                -0.7772091031074524,
                -0.5008847117424011
            ],
            "type" : "VEC3"
        },
        {
            "bufferView" : 1,
            "componentType" : 5126,
            "count" : 348,
            "type" : "VEC3"
        },
        {
            "bufferView" : 2,
            "componentType" : 5126,
            "count" : 348,
            "type" : "VEC2"
        },
        {
            "bufferView" : 3,
            "componentType" : 5123,
            "count" : 1728,
            "type" : "SCALAR"
        }
    ],
    "bufferViews" : [
        {
            "buffer" : 0,
            "byteLength" : 4176,
            "byteOffset" : 0
        },
        {
            "buffer" : 0,
            "byteLength" : 4176,
            "byteOffset" : 4176
        },
        {
            "buffer" : 0,
            "byteLength" : 2784,
            "byteOffset" : 8352
        },
        {
            "buffer" : 0,
            "byteLength" : 3456,
            "byteOffset" : 11136
        }
    ],
    "buffers" : [
        {
            "byteLength" : 14592,
            "uri" : "data:application/octet-stream;base64,"
        }
    ]
}
